<svg width="23" height="24" viewBox="0 0 23 24" fill="none" xmlns="http://www.w3.org/2000/svg">
<g id="SVG">
<path id="Vector" fill-rule="evenodd" clip-rule="evenodd" d="M11.9575 3.41487C14.8326 3.41487 15.1732 3.42581 16.3086 3.47762C17.3584 3.52553 17.9286 3.70096 18.3081 3.84837C18.8107 4.04371 19.1694 4.27709 19.5462 4.65387C19.9229 5.03064 20.1563 5.38939 20.3516 5.89195C20.4991 6.27143 20.6745 6.84158 20.7224 7.89139C20.7742 9.02685 20.7852 9.36739 20.7852 12.2425C20.7852 15.1176 20.7742 15.4582 20.7224 16.5936C20.6745 17.6435 20.4991 18.2137 20.3516 18.5932C20.1563 19.0957 19.9229 19.4545 19.5462 19.8313C19.1694 20.2079 18.8107 20.4414 18.3081 20.6367C17.9286 20.7841 17.3584 20.9596 16.3086 21.0075C15.1734 21.0593 14.8328 21.0702 11.9575 21.0702C9.08217 21.0702 8.74164 21.0593 7.60638 21.0075C6.55653 20.9596 5.98638 20.7841 5.60695 20.6367C5.10433 20.4414 4.7456 20.2079 4.36881 19.8313C3.99203 19.4545 3.75865 19.0957 3.56336 18.5932C3.4159 18.2137 3.24049 17.6435 3.19257 16.5937C3.14077 15.4582 3.12982 15.1176 3.12982 12.2425C3.12982 9.36739 3.14077 9.02685 3.19257 7.89143C3.24049 6.84158 3.4159 6.27143 3.56336 5.89195C3.75865 5.38939 3.99203 5.03064 4.36881 4.65387C4.7456 4.27709 5.10433 4.04371 5.60695 3.84837C5.98638 3.70096 6.55653 3.52553 7.60633 3.47762C8.74181 3.42581 9.08234 3.41487 11.9575 3.41487ZM11.9573 1.47461C9.03288 1.47461 8.66623 1.487 7.51772 1.53941C6.37157 1.59172 5.58886 1.77372 4.9039 2.03993C4.19582 2.31511 3.59533 2.68329 2.99671 3.28191C2.39809 3.88053 2.0299 4.48102 1.75473 5.1891C1.48853 5.87405 1.30653 6.65677 1.25421 7.80292C1.2018 8.95138 1.18945 9.31807 1.18945 12.2424C1.18945 15.1669 1.2018 15.5335 1.25421 16.682C1.30653 17.8282 1.48853 18.6109 1.75473 19.2958C2.0299 20.0038 2.39809 20.6044 2.99671 21.203C3.59533 21.8016 4.19582 22.1698 4.9039 22.445C5.58886 22.7112 6.37157 22.8932 7.51772 22.9455C8.66623 22.9979 9.03288 23.0103 11.9573 23.0103C14.8817 23.0103 15.2484 22.9979 16.3968 22.9455C17.543 22.8932 18.3257 22.7112 19.0106 22.445C19.7187 22.1698 20.3191 21.8016 20.9179 21.203C21.5165 20.6044 21.8847 20.0038 22.1598 19.2958C22.426 18.6109 22.608 17.8282 22.6603 16.682C22.7127 15.5335 22.7251 15.1669 22.7251 12.2424C22.7251 9.31807 22.7127 8.95138 22.6603 7.80292C22.608 6.65677 22.426 5.87405 22.1598 5.1891C21.8847 4.48102 21.5165 3.88053 20.9179 3.28191C20.3191 2.68329 19.7187 2.31511 19.0106 2.03993C18.3257 1.77372 17.543 1.59172 16.3968 1.53941C15.2484 1.487 14.8817 1.47461 11.9573 1.47461Z" fill="black"/>
<path id="Vector_2" fill-rule="evenodd" clip-rule="evenodd" d="M11.9916 7.34082C9.26179 7.34082 7.04883 9.55379 7.04883 12.2836C7.04883 15.0133 9.26179 17.2264 11.9916 17.2264C14.7214 17.2264 16.9344 15.0133 16.9344 12.2836C16.9344 9.55379 14.7214 7.34082 11.9916 7.34082ZM11.9914 15.4921C10.2194 15.4921 8.78292 14.0556 8.78292 12.2836C8.78292 10.5117 10.2194 9.07515 11.9914 9.07515C13.7634 9.07515 15.1998 10.5117 15.1998 12.2836C15.1998 14.0556 13.7634 15.4921 11.9914 15.4921Z" fill="black"/>
<path id="Vector_3" fill-rule="evenodd" clip-rule="evenodd" d="M17.8519 6.28626C17.8519 6.9999 17.2734 7.57842 16.5598 7.57842C15.8461 7.57842 15.2676 6.9999 15.2676 6.28626C15.2676 5.57262 15.8461 4.99414 16.5598 4.99414C17.2734 4.99414 17.8519 5.57262 17.8519 6.28626Z" fill="black"/>
</g>
</svg>
