<svg width="40" height="40" viewBox="0 0 40 40" fill="none" xmlns="http://www.w3.org/2000/svg">
<g id="la:facebook">
<path id="Vector" d="M20.0009 5.0752C11.7972 5.0752 5.12109 11.7513 5.12109 19.955C5.12109 28.1587 11.7972 34.8348 20.0009 34.8348C28.2046 34.8348 34.8807 28.1587 34.8807 19.955C34.8807 11.7513 28.2046 5.0752 20.0009 5.0752ZM20.0009 7.55516C26.8642 7.55516 32.4007 13.0917 32.4007 19.955C32.4037 22.9235 31.3393 25.7941 29.4016 28.0429C27.464 30.2917 24.7823 31.7689 21.846 32.2048V23.5708H25.3775L25.9317 19.9835H21.846V18.0243C21.846 16.5364 22.3358 15.2133 23.7283 15.2133H25.9664V12.0836C25.5734 12.0303 24.7413 11.9149 23.169 11.9149C19.8856 11.9149 17.9611 13.6484 17.9611 17.599V19.9835H14.5859V23.5708H17.9611V32.1738C15.0654 31.6972 12.4336 30.2065 10.5357 27.9682C8.63787 25.7298 7.5977 22.8896 7.60106 19.955C7.60106 13.0917 13.1376 7.55516 20.0009 7.55516Z" fill="black"/>
</g>
</svg>
