<svg width="33" height="34" viewBox="0 0 33 34" fill="none" xmlns="http://www.w3.org/2000/svg">
<g id="mdi:linkedin">
<path id="Vector" d="M25.4795 4.90918C26.1894 4.90918 26.8702 5.19118 27.3722 5.69315C27.8741 6.19511 28.1561 6.87593 28.1561 7.58582V26.3223C28.1561 27.0322 27.8741 27.713 27.3722 28.2149C26.8702 28.7169 26.1894 28.9989 25.4795 28.9989H6.74304C6.03315 28.9989 5.35234 28.7169 4.85037 28.2149C4.34841 27.713 4.06641 27.0322 4.06641 26.3223V7.58582C4.06641 6.87593 4.34841 6.19511 4.85037 5.69315C5.35234 5.19118 6.03315 4.90918 6.74304 4.90918H25.4795ZM24.8103 25.6531V18.56C24.8103 17.4029 24.3507 16.2932 23.5325 15.475C22.7143 14.6568 21.6045 14.1971 20.4474 14.1971C19.3098 14.1971 17.9849 14.893 17.3425 15.9369V14.4514H13.6086V25.6531H17.3425V19.0552C17.3425 18.0247 18.1723 17.1816 19.2028 17.1816C19.6997 17.1816 20.1763 17.379 20.5276 17.7303C20.879 18.0817 21.0764 18.5583 21.0764 19.0552V25.6531H24.8103ZM9.25908 12.3502C9.85539 12.3502 10.4273 12.1133 10.8489 11.6917C11.2706 11.27 11.5075 10.6982 11.5075 10.1019C11.5075 8.85722 10.5037 7.8401 9.25908 7.8401C8.65922 7.8401 8.08394 8.07839 7.65978 8.50255C7.23561 8.92671 6.99732 9.502 6.99732 10.1019C6.99732 11.3465 8.01444 12.3502 9.25908 12.3502ZM11.1193 25.6531V14.4514H7.4122V25.6531H11.1193Z" fill="black"/>
</g>
</svg>
