<svg width="24" height="26" viewBox="0 0 24 26" fill="none" xmlns="http://www.w3.org/2000/svg">
<g id="SVG">
<path id="Vector" d="M20.0741 6.6177C19.9111 6.53426 19.7524 6.44281 19.5986 6.34367C19.1515 6.05094 18.7417 5.70601 18.3777 5.31633C17.4671 4.28451 17.127 3.23774 17.0018 2.50486H17.0068C16.9022 1.89653 16.9454 1.50293 16.952 1.50293H12.8044V17.3853C12.8044 17.5985 12.8045 17.8093 12.7954 18.0176C12.7954 18.0434 12.7929 18.0673 12.7914 18.0953C12.7914 18.1067 12.7914 18.1186 12.7888 18.1307C12.7888 18.1336 12.7888 18.1366 12.7888 18.1396C12.7451 18.7094 12.5607 19.2599 12.2517 19.7427C11.9427 20.2253 11.5187 20.6254 11.017 20.9078C10.494 21.2024 9.90256 21.3569 9.30093 21.3562C7.36856 21.3562 5.80244 19.7957 5.80244 17.8685C5.80244 15.9415 7.36856 14.381 9.30093 14.381C9.66671 14.3806 10.0302 14.4377 10.378 14.5498L10.3831 10.3678C9.32728 10.2328 8.25467 10.3159 7.23292 10.6119C6.21117 10.9079 5.26244 11.4104 4.44661 12.0877C3.73176 12.7028 3.13078 13.4367 2.67072 14.2565C2.49563 14.5554 1.83508 15.7566 1.75509 17.7061C1.70478 18.8128 2.04034 19.9592 2.20032 20.4329V20.4429C2.30094 20.7219 2.69084 21.674 3.32623 22.4766C3.8386 23.1205 4.44394 23.686 5.12276 24.1551V24.1452L5.13283 24.1551C7.14066 25.5063 9.36683 25.4177 9.36683 25.4177C9.7522 25.4022 11.0431 25.4177 12.5091 24.7296C14.1352 23.9668 15.0608 22.8303 15.0608 22.8303C15.6521 22.1514 16.1225 21.3775 16.4514 20.542C16.8266 19.5651 16.952 18.3932 16.952 17.9249V9.49892C17.0023 9.52881 17.6723 9.96775 17.6723 9.96775C17.6723 9.96775 18.6378 10.5806 20.144 10.9796C21.2246 11.2636 22.6806 11.3234 22.6806 11.3234V7.24595C22.1704 7.30075 21.1345 7.14132 20.0741 6.6177Z" fill="black"/>
</g>
</svg>
